<svg id="visual" viewBox="0 0 1140 450" width="1140" height="450" xmlns="http://www.w3.org/2000/svg" xmlns:xlink="http://www.w3.org/1999/xlink" version="1.1"><rect x="0" y="0" width="1140" height="450" fill="#01012b"></rect><path d="M0 14L8.3 21.3C16.7 28.7 33.3 43.3 49.8 52.2C66.3 61 82.7 64 99.2 57.7C115.7 51.3 132.3 35.7 148.8 34.5C165.3 33.3 181.7 46.7 198.2 53.3C214.7 60 231.3 60 247.8 60.8C264.3 61.7 280.7 63.3 297.2 61C313.7 58.7 330.3 52.3 347 45.2C363.7 38 380.3 30 396.8 29.5C413.3 29 429.7 36 446.2 35C462.7 34 479.3 25 495.8 22.3C512.3 19.7 528.7 23.3 545.2 29C561.7 34.7 578.3 42.3 594.8 47.5C611.3 52.7 627.7 55.3 644.2 55.5C660.7 55.7 677.3 53.3 693.8 47.2C710.3 41 726.7 31 743.2 33C759.7 35 776.3 49 793 47.7C809.7 46.3 826.3 29.7 842.8 24C859.3 18.3 875.7 23.7 892.2 25.7C908.7 27.7 925.3 26.3 941.8 26.8C958.3 27.3 974.7 29.7 991.2 32C1007.7 34.3 1024.3 36.7 1040.8 34.7C1057.3 32.7 1073.7 26.3 1090.2 25C1106.7 23.7 1123.3 27.3 1131.7 29.2L1140 31L1140 0L1131.7 0C1123.3 0 1106.7 0 1090.2 0C1073.7 0 1057.3 0 1040.8 0C1024.3 0 1007.7 0 991.2 0C974.7 0 958.3 0 941.8 0C925.3 0 908.7 0 892.2 0C875.7 0 859.3 0 842.8 0C826.3 0 809.7 0 793 0C776.3 0 759.7 0 743.2 0C726.7 0 710.3 0 693.8 0C677.3 0 660.7 0 644.2 0C627.7 0 611.3 0 594.8 0C578.3 0 561.7 0 545.2 0C528.7 0 512.3 0 495.8 0C479.3 0 462.7 0 446.2 0C429.7 0 413.3 0 396.8 0C380.3 0 363.7 0 347 0C330.3 0 313.7 0 297.2 0C280.7 0 264.3 0 247.8 0C231.3 0 214.7 0 198.2 0C181.7 0 165.3 0 148.8 0C132.3 0 115.7 0 99.2 0C82.7 0 66.3 0 49.8 0C33.3 0 16.7 0 8.3 0L0 0Z" fill="#05419a" stroke-linecap="round" stroke-linejoin="miter"></path></svg>