<svg id="visual" viewBox="0 0 1440 560" width="1440" height="560" xmlns="http://www.w3.org/2000/svg" xmlns:xlink="http://www.w3.org/1999/xlink" version="1.1"><rect x="0" y="0" width="1440" height="560" fill="#01012b"></rect><path d="M0 471L21.8 466.7C43.7 462.3 87.3 453.7 131 459.8C174.7 466 218.3 487 262 499.2C305.7 511.3 349.3 514.7 393 506.7C436.7 498.7 480.3 479.3 524 473.3C567.7 467.3 611.3 474.7 654.8 482.2C698.3 489.7 741.7 497.3 785.2 502.3C828.7 507.3 872.3 509.7 916 502.7C959.7 495.7 1003.3 479.3 1047 470.8C1090.7 462.3 1134.3 461.7 1178 458.7C1221.7 455.7 1265.3 450.3 1309 454.5C1352.7 458.7 1396.3 472.3 1418.2 479.2L1440 486L1440 561L1418.2 561C1396.3 561 1352.7 561 1309 561C1265.3 561 1221.7 561 1178 561C1134.3 561 1090.7 561 1047 561C1003.3 561 959.7 561 916 561C872.3 561 828.7 561 785.2 561C741.7 561 698.3 561 654.8 561C611.3 561 567.7 561 524 561C480.3 561 436.7 561 393 561C349.3 561 305.7 561 262 561C218.3 561 174.7 561 131 561C87.3 561 43.7 561 21.8 561L0 561Z" fill="#488FDB" stroke-linecap="round" stroke-linejoin="miter"></path></svg>