<svg id="visual" viewBox="0 0 1440 560" width="1440" height="560" xmlns="http://www.w3.org/2000/svg" xmlns:xlink="http://www.w3.org/1999/xlink" version="1.1"><rect x="0" y="0" width="1440" height="560" fill="#01012b"></rect><defs><linearGradient id="grad1_0" x1="61.1%" y1="0%" x2="100%" y2="100%"><stop offset="-1.4285714285714342%" stop-color="#01012b" stop-opacity="1"></stop><stop offset="101.42857142857143%" stop-color="#01012b" stop-opacity="1"></stop></linearGradient></defs><defs><linearGradient id="grad2_0" x1="0%" y1="0%" x2="38.9%" y2="100%"><stop offset="-1.4285714285714342%" stop-color="#01012b" stop-opacity="1"></stop><stop offset="101.42857142857143%" stop-color="#01012b" stop-opacity="1"></stop></linearGradient></defs><g transform="translate(1440, 0)"><path d="M0 280C-50.1 273.3 -100.1 266.6 -140 242.5C-179.9 218.4 -209.6 176.8 -231.2 133.5C-252.9 90.2 -266.4 45.1 -280 0L0 0Z" fill="#488FDB"></path></g><g transform="translate(0, 560)"><path d="M0 -280C51.3 -274 102.7 -268.1 140 -242.5C177.3 -216.9 200.7 -171.7 221.7 -128C242.7 -84.3 261.4 -42.2 280 0L0 0Z" fill="#488FDB"></path></g></svg>