<svg id="visual" viewBox="0 0 1440 560" width="1440" height="560" xmlns="http://www.w3.org/2000/svg" xmlns:xlink="http://www.w3.org/1999/xlink" version="1.1"><rect x="0" y="0" width="1440" height="560" fill="#01012b"></rect><path d="M0 87L21.8 91.3C43.7 95.7 87.3 104.3 131 98.2C174.7 92 218.3 71 262 58.8C305.7 46.7 349.3 43.3 393 51.3C436.7 59.3 480.3 78.7 524 84.7C567.7 90.7 611.3 83.3 654.8 75.8C698.3 68.3 741.7 60.7 785.2 55.7C828.7 50.7 872.3 48.3 916 55.3C959.7 62.3 1003.3 78.7 1047 87.2C1090.7 95.7 1134.3 96.3 1178 99.3C1221.7 102.3 1265.3 107.7 1309 103.5C1352.7 99.3 1396.3 85.7 1418.2 78.8L1440 72L1440 0L1418.2 0C1396.3 0 1352.7 0 1309 0C1265.3 0 1221.7 0 1178 0C1134.3 0 1090.7 0 1047 0C1003.3 0 959.7 0 916 0C872.3 0 828.7 0 785.2 0C741.7 0 698.3 0 654.8 0C611.3 0 567.7 0 524 0C480.3 0 436.7 0 393 0C349.3 0 305.7 0 262 0C218.3 0 174.7 0 131 0C87.3 0 43.7 0 21.8 0L0 0Z" fill="#488FDB" stroke-linecap="round" stroke-linejoin="miter"></path></svg>