<svg id="visual" viewBox="0 0 900 600" width="900" height="600" xmlns="http://www.w3.org/2000/svg" xmlns:xlink="http://www.w3.org/1999/xlink" version="1.1"><rect x="0" y="0" width="900" height="600" fill="#01012b"></rect><path d="M0 58L10.7 56.3C21.3 54.7 42.7 51.3 64.2 48.3C85.7 45.3 107.3 42.7 128.8 38.5C150.3 34.3 171.7 28.7 193 28.2C214.3 27.7 235.7 32.3 257 39.8C278.3 47.3 299.7 57.7 321.2 54C342.7 50.3 364.3 32.7 385.8 27C407.3 21.3 428.7 27.7 450 32.5C471.3 37.3 492.7 40.7 514.2 50.2C535.7 59.7 557.3 75.3 578.8 81.8C600.3 88.3 621.7 85.7 643 87.7C664.3 89.7 685.7 96.3 707 99.8C728.3 103.3 749.7 103.7 771.2 94.7C792.7 85.7 814.3 67.3 835.8 53.8C857.3 40.3 878.7 31.7 889.3 27.3L900 23L900 0L889.3 0C878.7 0 857.3 0 835.8 0C814.3 0 792.7 0 771.2 0C749.7 0 728.3 0 707 0C685.7 0 664.3 0 643 0C621.7 0 600.3 0 578.8 0C557.3 0 535.7 0 514.2 0C492.7 0 471.3 0 450 0C428.7 0 407.3 0 385.8 0C364.3 0 342.7 0 321.2 0C299.7 0 278.3 0 257 0C235.7 0 214.3 0 193 0C171.7 0 150.3 0 128.8 0C107.3 0 85.7 0 64.2 0C42.7 0 21.3 0 10.7 0L0 0Z" fill="#144186" stroke-linecap="round" stroke-linejoin="miter"></path></svg>